<svg width="212" height="220" viewBox="0 0 212 220" fill="none" xmlns="http://www.w3.org/2000/svg">
<path d="M69.9235 191.584C75.1433 194.857 71.8785 201.307 66.4597 202.077C62.2633 202.671 56.0326 197.955 57.9198 193.244C59.6551 188.902 66.117 189.198 69.9235 191.584Z" fill="#2F3941"/>
<path d="M165.275 30.5497C164.881 30.1393 164.374 29.8556 163.818 29.7348C163.262 29.6139 162.683 29.6614 162.154 29.8712C161.625 30.0809 161.171 30.4434 160.849 30.9125C160.527 31.3815 160.352 31.9358 160.346 32.5047C160.418 33.1692 160.731 33.7844 161.226 34.234C161.72 34.6836 162.362 34.9365 163.031 34.945C163.762 34.9619 164.476 34.7146 165.04 34.2486C165.605 33.7825 165.983 33.1288 166.104 32.407C166.082 31.7032 165.784 31.0364 165.275 30.5497Z" fill="#2F3941"/>
<path d="M169.472 59.0552C169.266 58.4239 168.139 58.4699 168.207 59.2013C168.437 61.8911 168.451 65.7402 171.574 66.4233C176.259 67.4479 182.231 66.3152 186.849 65.2526C187.037 65.1969 187.201 65.0805 187.315 64.9215C187.43 64.7625 187.489 64.5699 187.482 64.374C187.482 61.0068 187.506 57.6396 187.532 54.2724C187.532 54.033 187.437 53.8033 187.267 53.634C187.098 53.4647 186.868 53.3696 186.629 53.3696C186.389 53.3696 186.16 53.4647 185.991 53.634C185.821 53.8033 185.726 54.033 185.726 54.2724C185.872 56.7914 185.872 59.3169 185.726 61.8359C185.579 63.0561 185.822 63.3447 184.604 63.8369C183.124 64.2398 181.598 64.4531 180.065 64.4717C169.672 66.1967 170.829 63.2033 169.472 59.0552Z" fill="#2F3941"/>
<path d="M175.669 41.0423C176.694 41.1884 178.454 40.9871 179.28 41.4322C180.799 42.251 180.253 44.6039 180.208 46.0195C180.155 47.6778 180.153 49.3373 180.11 50.9967C180.053 53.2415 180.596 54.3041 178.207 54.8515C171.319 56.4305 163.421 56.0717 156.394 55.4863C156.248 54.3639 156.059 53.1863 155.906 52.0708C155.766 51.045 153.906 51.2405 154.051 52.3146C154.249 53.7774 154.458 55.1896 154.638 56.657C154.693 56.8628 154.812 57.0453 154.979 57.1774C155.147 57.3094 155.352 57.3838 155.565 57.3896C164.136 58.2659 172.661 57.485 181.183 56.2177C181.373 56.1662 181.54 56.0509 181.656 55.8913C181.771 55.7316 181.829 55.5371 181.818 55.3403C181.818 52.8517 181.794 50.3631 181.769 47.9228C181.752 46.215 182.165 43.6758 181.672 42.0175C180.9 39.4289 177.817 40.0901 175.718 40.0625C175.23 40.0602 175.084 40.9929 175.669 41.0423Z" fill="#2F3941"/>
<path d="M132.68 47.3376C132.516 47.4451 132.393 47.6045 132.33 47.7903C132.268 47.9761 132.269 48.1775 132.335 48.3623C133.262 51.7295 137.946 50.7037 140.63 50.7037C150.194 50.7037 160.002 50.8566 169.567 50.4599C170.885 50.4058 172.105 50.4116 172.787 49.0454C173.373 47.8735 173.093 46.1175 173.132 44.8973C173.285 39.6775 173.409 34.4542 173.477 29.2332C173.501 27.2322 174.462 23.3682 172.55 21.9134C170.801 20.5852 166.841 21.2798 164.791 21.2303C145.099 20.7554 146.43 21.1268 141.319 20.8393C138.927 20.7048 135.479 19.7882 133.316 21.3281C131.717 22.4666 132.315 25.3772 132.341 27.0367C132.436 33.7699 132.288 40.5538 132.68 47.3376ZM133.945 23.5729C134.89 21.826 139.068 22.516 140.923 22.5471C147.018 22.6517 153.172 22.7161 159.271 22.8921C162.349 22.7864 165.43 22.8843 168.494 23.1853C170.544 23.5246 171.625 24.3077 171.568 26.5042C171.526 28.1625 171.36 36.7024 171.275 39.3842C171.219 41.1897 172.013 47.5941 170.01 48.5578C169.09 49.0028 166.643 48.5578 165.618 48.5578C162.656 48.5578 156.763 48.705 145.367 48.705C143.854 48.705 134.68 49.6802 134.192 47.8264C134.137 47.6152 134.016 47.4271 133.847 47.2893C134.132 38.9886 133.762 23.9133 133.945 23.5729Z" fill="#2F3941"/>
<path d="M152.49 43.7255C152.466 37.5282 151.968 31.0859 151.369 24.9391C151.363 24.8393 151.32 24.7452 151.247 24.6765C151.174 24.6077 151.078 24.5693 150.978 24.5693C150.878 24.5693 150.782 24.6077 150.709 24.6765C150.637 24.7452 150.593 24.8393 150.588 24.9391C150.115 31.2593 150.377 37.613 151.369 43.8727C151.468 44.5064 152.492 44.312 152.49 43.7255Z" fill="#2F3941"/>
<path d="M137.802 29.7207C140.293 29.9392 142.779 29.9162 145.268 29.9162C145.449 29.9162 145.622 29.8442 145.751 29.7161C145.879 29.588 145.951 29.4143 145.951 29.2331C145.951 29.0519 145.879 28.8782 145.751 28.7501C145.622 28.622 145.449 28.55 145.268 28.55C142.779 28.55 140.242 28.5006 137.802 28.7444C137.676 28.7505 137.558 28.8045 137.472 28.8954C137.385 28.9863 137.337 29.107 137.337 29.2325C137.337 29.3581 137.385 29.4788 137.472 29.5697C137.558 29.6605 137.676 29.7146 137.802 29.7207Z" fill="#2F3941"/>
<path d="M142.243 34.6003C140.791 34.5606 139.338 34.6426 137.9 34.8452C137.314 34.9441 137.555 35.7158 138.046 35.7721C139.561 35.9458 141.071 35.894 142.585 35.9182C143.933 36.0338 145.289 36.0176 146.634 35.8699C147.171 35.771 147.071 35.0028 146.634 34.8935C145.188 34.6185 143.713 34.5201 142.243 34.6003Z" fill="#2F3941"/>
<path d="M144.439 41.237C142.305 40.9363 140.144 40.8873 137.999 41.091C137.873 41.0971 137.755 41.1511 137.669 41.242C137.582 41.3329 137.534 41.4536 137.534 41.5791C137.534 41.7047 137.582 41.8254 137.669 41.9163C137.755 42.0071 137.873 42.0612 137.999 42.0673C140.097 42.0432 142.193 42.2421 144.244 42.4123C144.975 42.4675 145.121 41.3451 144.439 41.237Z" fill="#2F3941"/>
<path d="M170.744 27.1839C170.745 27.0746 170.724 26.9663 170.683 26.8652C170.641 26.7642 170.58 26.6723 170.503 26.5951C170.426 26.5178 170.334 26.4567 170.233 26.4152C170.132 26.3738 170.023 26.3528 169.914 26.3536C165.429 26.7492 160.934 26.027 156.446 26.2558C156.279 26.2725 156.12 26.3351 155.986 26.4369C155.852 26.5387 155.749 26.6755 155.688 26.8323C155.627 26.9891 155.611 27.1597 155.642 27.3251C155.672 27.4905 155.748 27.6442 155.86 27.7692C155.515 31.6723 155.787 35.6743 155.812 39.5786C155.819 40.7493 155.21 43.6036 156.299 44.458C157.502 45.4068 161.474 44.9065 162.838 44.9456C165.173 45.2036 167.528 45.2201 169.866 44.9951C170.004 44.9533 170.13 44.878 170.232 44.7759C170.334 44.6738 170.409 44.548 170.451 44.4097C171.229 38.7977 170.618 32.7993 170.744 27.1839ZM168.596 43.2839C166.986 42.8929 164.839 43.2344 163.18 43.1861C161.448 42.9756 159.701 42.9102 157.959 42.9906C157.762 43.021 157.562 43.0044 157.373 42.9423C157.293 42.3274 157.261 41.7073 157.276 41.0874C157.08 36.6955 157.422 32.2554 157.08 27.8624C161.082 27.7646 165.035 28.2074 169.04 28.0084C168.682 36.239 169.134 43.829 168.593 43.2873L168.596 43.2839Z" fill="#2F3941"/>
<path d="M37.6681 180.02C37.5683 180.025 37.4743 180.069 37.4055 180.141C37.3367 180.214 37.2983 180.31 37.2983 180.41C37.2983 180.51 37.3367 180.607 37.4055 180.679C37.4743 180.752 37.5683 180.795 37.6681 180.801C44.5969 181.045 51.4785 181.101 58.4072 180.849C64.8978 180.613 71.5989 180.734 77.9756 179.337C78.6116 179.198 78.4149 178.357 77.8296 178.312C71.1952 177.791 64.4091 178.558 57.7724 178.848C51.0392 179.144 44.3462 179.441 37.6681 180.02Z" fill="#2F3941"/>
<path d="M49.8674 175.579C50.3377 173.342 50.134 171.015 49.282 168.894C49.136 168.455 48.362 168.31 48.2574 168.894C47.8106 171.178 48.0656 173.543 48.9888 175.679C49.0349 175.761 49.1044 175.828 49.1885 175.871C49.2726 175.914 49.3675 175.932 49.4613 175.921C49.5551 175.91 49.6437 175.872 49.716 175.811C49.7882 175.75 49.8409 175.67 49.8674 175.579Z" fill="#2F3941"/>
<path d="M38.2536 184.851C38.1448 184.743 38.0097 184.666 37.8617 184.626C37.7136 184.587 37.5578 184.587 37.4098 184.626C37.2617 184.666 37.1266 184.743 37.0178 184.851C36.909 184.959 36.8303 185.093 36.7896 185.241C35.0336 192.073 33.5512 198.912 31.7641 205.736C31.1891 207.935 28.7879 212.46 32.154 212.91C36.7919 213.53 41.7185 213.23 46.3542 213.3C53.7234 213.415 61.042 213.476 68.4112 213.398C74.6568 213.332 81.144 213.426 87.3448 212.373C87.4802 212.336 87.6068 212.272 87.7172 212.185C87.8276 212.099 87.9197 211.991 87.9879 211.868C88.0561 211.745 88.0991 211.61 88.1145 211.471C88.1299 211.331 88.1172 211.19 88.0773 211.055C85.8325 202.259 83.7211 193.475 81.7822 184.605C81.7142 184.384 81.5789 184.19 81.3951 184.05C81.2114 183.91 80.9885 183.831 80.7576 183.824C66.8104 182.368 52.21 183.387 38.2536 184.851ZM79.9273 185.876C81.88 194.073 83.8319 202.271 85.7831 210.47C76.7579 211.88 41.2781 211.239 32.691 210.763C34.1205 203.612 38.1386 194.433 38.4974 186.12C52.3077 186.9 66.1181 184.656 79.9273 185.876Z" fill="#2F3941"/>
<path d="M53.6745 195.445C53.356 191.978 53.1375 188.711 50.0635 186.222C46.2087 186.32 42.3585 186.32 38.498 186.075C38.153 194.044 34.2189 203.08 32.6917 210.718C38.575 211.063 36.2992 210.906 45.3784 211.157C49.5483 208.629 54.2495 201.68 53.6745 195.445Z" fill="#2F3941"/>
<path d="M211.34 78.6164C207.569 73.4625 203.53 68.5106 199.238 63.7814C199.096 63.6394 198.903 63.5597 198.701 63.5597C198.5 63.5597 198.307 63.6394 198.164 63.7814C193.359 67.699 188.766 71.869 184.403 76.2739C181.671 75.493 177.87 76.4337 175.57 77.3951C173.116 78.416 170.948 80.0211 169.256 82.0709C167.563 84.1207 166.397 86.553 165.86 89.1562C165.335 91.6471 165.515 94.0356 163.762 95.8906C163.517 95.3535 163.332 94.7636 163.079 94.2311C162.962 94.0369 162.773 93.8969 162.554 93.8419C162.334 93.7869 162.101 93.8214 161.907 93.9379C150.417 101.059 138.533 108.577 128.529 117.703C121.935 102.362 99.1216 70.9344 80.9505 73.2965C80.0737 68.1484 78.4635 63.1526 76.1688 58.4615C75.8778 57.875 74.8497 58.2672 75.0947 58.9008C78.9748 68.9449 79.0507 73.3977 79.4348 73.7853C77.9708 78.5187 76.8967 83.3498 75.58 88.1327C74.5128 87.7762 69.5896 79.7515 61.2326 76.8109C61.2326 75.7069 57.6676 61.7747 50.4479 47.6791C50.3665 47.5267 50.2335 47.4082 50.0727 47.345C49.9119 47.2818 49.7338 47.2779 49.5704 47.3341C45.9387 48.8901 44.7864 45.5194 45.2269 43.2838C45.9065 39.8338 49.3025 39.8407 50.1063 39.4773C51.3867 38.7715 52.4799 37.77 53.2948 36.5562C54.1098 35.3424 54.6229 33.9514 54.7914 32.4991C54.8374 30.3026 53.9623 28.1556 53.9623 25.9108C53.9623 23.3244 54.7454 20.9416 57.4755 20.1044C59.5271 19.4754 62.9576 19.6766 63.8684 22.202C64.6538 24.387 65.4151 19.6525 67.6254 17.3226C69.8357 14.9927 74.3391 14.6005 76.0676 17.7136C77.9375 21.0808 76.3413 26.0016 79.7763 28.6386C87.9655 47.3548 76.1619 62.4037 61.3763 56.8918C60.5943 56.6008 60.2516 57.7244 60.8393 58.1568C67.0619 62.7752 76.3114 58.8905 80.3099 53.1796C85.1928 46.2037 84.7949 36.8806 81.1391 29.4631C82.4046 29.9642 83.804 30.0145 85.1024 29.6058C86.4007 29.197 87.5188 28.354 88.2691 27.2183C88.6555 26.679 88.0253 26.1937 87.5377 26.242C82.4133 27.0723 82.9503 18.9717 81.7796 15.7022C80.1441 10.9141 77.1836 6.68824 73.242 3.51566C68.527 -0.0654395 63.3325 0.331311 57.8217 1.90566C55.2825 2.63131 51.185 3.95496 50.2581 6.88286C48.0192 6.3693 45.6743 6.59193 43.572 7.51766C40.6349 9.01266 40.0576 12.0027 39.6195 14.9835C38.8145 20.4276 38.4994 29.4482 37.0331 32.1116C36.0326 33.9309 32.8747 34.2138 32.2031 31.9655C32.1526 31.8014 32.0454 31.6606 31.9006 31.5683C31.7557 31.476 31.5828 31.4382 31.4127 31.4617C31.2426 31.4852 31.0864 31.5685 30.9721 31.6966C30.8577 31.8247 30.7927 31.9893 30.7886 32.161C30.6182 33.3624 30.7779 34.5875 31.2508 35.705C31.7236 36.8225 32.4917 37.7902 33.4727 38.5044C34.4869 39.0746 35.663 39.2882 36.813 39.1112C37.9629 38.9343 39.0203 38.3768 39.8161 37.5281C40.2163 37.098 40.9788 37.6684 40.6453 38.1629C40.0112 38.9637 39.2022 39.6089 38.2803 40.0488C37.3584 40.4887 36.348 40.7118 35.3265 40.7009C35.3656 40.8159 37.1309 45.7529 37.1815 45.8759C38.4039 48.8015 40.1565 52.8576 43.5732 53.7316C46.0618 54.3687 48.8931 53.4395 51.1379 52.2193C54.7489 59.7829 56.6027 67.9318 59.1879 75.9346C56.8741 75.7299 49.9269 78.6049 46.8415 82.2274C30.7898 86.7699 18.7884 97.9433 10.536 112.141C-0.958282 131.921 -1.03188 143.798 2.87467 159.281C4.98032 167.623 7.80357 176.555 12.4392 183.973C12.6629 185.115 13.1379 186.194 13.8298 187.131C14.5218 188.068 15.4134 188.839 16.4401 189.389C20.2454 191.246 24.4441 188.656 25.517 184.904C26.2158 185.585 26.9844 186.19 27.8101 186.71C24.7856 196.47 22.297 206.368 19.4657 216.086C19.4265 216.229 19.4207 216.379 19.4489 216.525C19.4771 216.671 19.5385 216.808 19.6282 216.926C19.718 217.044 19.8338 217.139 19.9665 217.205C20.0993 217.271 20.2455 217.306 20.3938 217.306C44.3 219.08 68.2434 219.649 92.2239 219.014C98.5662 218.853 104.912 219.16 111.255 219.062C110.156 204.771 110.316 193.302 104.766 169.142C108.306 163.804 109.206 153.759 109.206 147.378C112.741 154.449 117.93 155.876 125.407 154.063C135.955 151.507 149.802 144.633 162.689 132.885C165.855 130 167.695 128.106 168.155 123.809C168.407 121.361 168.504 118.9 168.447 116.44C172.643 113.658 177.72 110.389 180.793 106.388C181.179 107.929 194.038 108.099 200.458 100.293C202.662 97.3618 204.18 93.9733 204.9 90.3775C205.185 89.2045 206.12 86.571 204.998 85.5475C207.095 83.5925 209.242 81.6375 211.293 79.6422C211.386 79.4891 211.44 79.3147 211.448 79.1354C211.456 78.956 211.419 78.7775 211.34 78.6164ZM80.318 74.4649C85.2952 74.3189 89.5893 76.0266 93.9811 78.2231C94.0789 86.4698 89.1511 92.5211 83.7335 98.2791C82.0566 94.875 79.6978 91.8519 76.8036 89.3977C78.0732 84.4699 79.5371 79.495 80.318 74.4649ZM59.6755 77.3399C70.2463 82.6299 72.8798 88.2419 73.8274 89.2999C70.901 93.2038 69.2942 97.9384 69.24 102.817C63.9696 102.232 59.0372 99.1612 55.4791 95.3995C52.2062 91.9392 50.2581 87.6405 47.8178 83.6396C51.3863 80.0735 55.4872 77.141 59.6755 77.348V77.3399ZM166.395 120.429C166.286 122.722 166.28 125.301 165.13 127.31C163.912 129.055 162.45 130.616 160.787 131.945C151.844 140.178 141.341 146.534 129.898 150.635C125.653 152.15 119.956 154.221 115.6 151.953C111.903 150.028 110.425 145.56 108.915 141.998C108.31 134.173 107.103 126.406 105.303 118.768C105.163 118.132 104.231 118.423 104.328 119.061C105.708 128.183 107.318 137.409 107.256 146.68C107.215 152.634 107.012 164.492 101.692 169.273C99.692 169.469 97.6416 169.713 95.6417 170.006C94.9583 171.539 93.7929 172.807 92.3228 173.617C92.2565 173.652 92.1834 173.672 92.1086 173.676C92.0337 173.679 91.9589 173.667 91.8894 173.639C91.8198 173.611 91.7572 173.568 91.7057 173.514C91.6543 173.46 91.6153 173.395 91.5914 173.324C95.8855 170.787 94.6585 161.757 94.4216 157.562C94.4102 157.414 94.3436 157.276 94.2349 157.175C94.1263 157.075 93.9837 157.019 93.8356 157.019C93.6876 157.019 93.545 157.075 93.4363 157.175C93.3277 157.276 93.2611 157.414 93.2497 157.562C92.8576 165.086 93.4797 168.473 91.3959 170.641C89.4351 170.971 87.508 171.477 85.6379 172.153C83.4908 164.833 81.5255 157.424 79.245 150.145C79.1798 149.923 79.0452 149.727 78.8609 149.587C78.6765 149.446 78.4521 149.368 78.2204 149.364C71.7052 149.193 65.188 149.617 58.7497 150.629C57.4318 150.871 57.9689 152.919 59.2868 152.679C65.274 151.744 71.3335 151.352 77.3912 151.508C93.9857 208.642 94.0904 208.24 96.0316 216.751C71.1444 218.41 46.2573 217.19 21.4196 215.486C26.0058 198.696 31.1612 182.281 36.5996 165.76C36.8894 164.88 35.5703 164.587 35.2334 165.37C32.5512 171.738 30.1896 178.237 28.1574 184.841C22.0095 180.156 20.5674 173.641 18.9356 166.053C18.8948 165.925 18.8101 165.815 18.6964 165.742C18.5826 165.67 18.447 165.64 18.3133 165.657C18.1796 165.674 18.0562 165.738 17.9648 165.837C17.8734 165.936 17.8197 166.065 17.8132 166.199C18.2835 172.106 20.0085 178.789 23.9611 183.473C16.409 194.801 10.628 183.874 14.8358 169.273C17.0059 161.745 21.599 156.163 26.6452 151.12C28.2069 149.559 30.3539 147.168 32.7942 147.509C33.0863 148.584 33.3876 149.655 33.6234 150.729C33.6832 150.923 33.8103 151.089 33.9816 151.197C34.1529 151.305 34.3572 151.348 34.5575 151.318C34.7579 151.289 34.9411 151.189 35.0741 151.036C35.2071 150.883 35.2811 150.688 35.2828 150.486C35.0091 145.27 31.6856 139.791 30.9393 137.554C34.2582 131.99 39.4309 127.452 43.9688 122.914C44.6519 122.231 43.5801 121.16 42.8947 121.84C38.466 126.245 33.5256 130.624 30.3597 136.09C28.798 132.186 27.3041 128.194 26.0161 124.183C25.967 124.025 25.8583 123.893 25.713 123.814C25.5678 123.735 25.3975 123.716 25.2385 123.761C25.0795 123.806 24.9444 123.912 24.8619 124.055C24.7795 124.198 24.7562 124.368 24.7971 124.528C26.1265 128.999 31.6776 143.848 32.409 146.243C30.799 146 29.3879 146.834 27.924 147.999C16.6333 156.961 11.4341 169.014 11.7228 180.012C8.30691 172.581 5.62651 164.834 3.71992 156.881C-3.52508 125.017 19.9786 91.8023 46.6632 84.1226C51.2989 93.7366 58.2782 103.693 69.9392 104.57C70.7856 104.633 70.7569 103.903 70.9156 101.837C71.5596 102.481 77.4878 107.486 78.3331 106.912C79.7756 105.927 81.0129 104.672 81.9763 103.215C81.6745 100.664 80.8438 98.2043 79.5371 95.9929C79.2404 95.4087 79.973 94.8245 80.4157 95.3098C81.7228 96.7898 82.6889 98.5387 83.2459 100.433C85.2285 100.433 90.7726 92.5314 92.0779 90.2337C93.9892 86.8711 95.8844 82.8174 95.3473 78.9131C104.833 82.5609 121.693 108.314 126.53 118.342C128.72 122.883 129.175 127.903 129.405 132.884C129.417 133.147 129.53 133.396 129.721 133.578C129.912 133.759 130.166 133.861 130.429 133.861C130.693 133.861 130.946 133.759 131.137 133.578C131.328 133.396 131.441 133.147 131.454 132.884C131.548 128.116 130.65 123.38 128.818 118.977C139.743 111.12 150.241 103.019 161.758 95.9435C165.21 103.629 166.799 112.021 166.398 120.437L166.395 120.429ZM184.402 101.544C180.189 97.7966 176.714 93.2949 174.155 88.2707C175.487 86.4867 177.227 85.0477 179.229 84.0743C179.671 83.8351 179.376 83.098 178.884 83.2935C176.415 84.0573 174.248 85.576 172.687 87.6359C172.494 87.7652 172.354 87.959 172.29 88.1825C172.227 88.406 172.245 88.6448 172.342 88.856C175.083 94.4804 178.973 99.4675 183.76 103.496C183.941 103.659 184.176 103.75 184.419 103.75C184.663 103.75 184.898 103.659 185.078 103.496C191.399 97.9134 197.661 92.2692 203.866 86.5629C204.263 87.951 201.72 97.7179 196.253 101.69C192.343 104.528 185.903 105.448 181.073 105.448C180.466 103.929 177.067 108.457 168.142 114.476C167.736 108.566 166.406 102.756 164.201 97.2579C167.618 95.0131 166.7 90.4304 168.155 86.9079C169.08 84.6268 170.567 82.6165 172.477 81.0638C174.387 79.5111 176.658 78.4663 179.08 78.0265C179.568 77.9287 187.083 77.1973 184.886 80.1252C184.447 80.7106 185.268 81.3799 185.813 81.0521C187.592 79.9826 187.131 77.8321 185.521 76.8063C190.108 73.3425 194.255 69.1945 198.551 65.388C199.38 66.3149 200.161 67.2418 200.941 68.2181C200.715 68.6316 200.617 69.1033 200.661 69.5727C200.704 70.0421 200.887 70.4879 201.185 70.8528L203.772 73.9762C204.054 74.3347 204.438 74.6005 204.872 74.7397C205.307 74.8788 205.774 74.8848 206.212 74.757C207.237 76.1232 208.261 77.4894 209.236 78.9051C201.143 86.6193 192.797 94.1299 184.404 101.552L184.402 101.544Z" fill="#2F3941"/>
<path d="M179.183 90.2302C178.644 89.8426 178.102 90.5752 178.353 91.0605C178.787 91.8081 179.293 92.5108 179.866 93.1581C182.158 95.9905 183.366 94.4587 181.085 92.0851C180.506 91.4129 179.87 90.7923 179.183 90.2302Z" fill="#2F3941"/>
<path d="M68.0693 34.454C68.6351 36.2503 69.2906 38.065 69.9726 39.8222C70.5591 41.3344 73.4881 47.664 68.9962 46.7509C68.8409 46.713 68.6772 46.7324 68.535 46.8056C68.3929 46.8788 68.282 47.0009 68.2227 47.1493C68.1634 47.2977 68.1596 47.4626 68.2122 47.6136C68.2647 47.7646 68.37 47.8915 68.5086 47.9711C70.3808 49.2131 72.5221 47.5835 72.9488 45.6285C73.1301 44.0245 72.8061 42.4038 72.0219 40.9929C71.0294 38.6572 70.0209 36.3572 68.8502 34.1124C68.7919 34.0315 68.7077 33.973 68.6115 33.9466C68.5154 33.9203 68.4131 33.9277 68.3217 33.9677C68.2304 34.0076 68.1555 34.0777 68.1096 34.1662C68.0636 34.2547 68.0494 34.3563 68.0693 34.454Z" fill="#2F3941"/>
<path d="M71.193 33.673C70.848 34.1123 71.2838 34.7862 71.8266 34.4539C73.4848 33.35 75.0223 32.0749 76.4139 30.6497C76.6577 30.2598 76.2679 29.6273 75.7791 29.8205C74.1102 30.9279 72.5718 32.2203 71.193 33.673Z" fill="#2F3941"/>
<path d="M62.701 38.4559C62.8264 38.4498 62.9446 38.3957 63.0312 38.3048C63.1178 38.2139 63.1661 38.0932 63.1661 37.9677C63.1661 37.8422 63.1178 37.7215 63.0312 37.6306C62.9446 37.5397 62.8264 37.4856 62.701 37.4795C60.7978 37.3335 58.2229 37.1081 56.4554 38.1143C53.7897 39.6346 60.7495 38.4559 62.701 38.4559Z" fill="#2F3941"/>
<path d="M62.4147 50.4117C62.3235 50.3253 62.2045 50.2741 62.079 50.2674C61.9535 50.2606 61.8297 50.2988 61.7298 50.3751C61.6299 50.4513 61.5604 50.5606 61.5338 50.6835C61.5071 50.8063 61.5251 50.9346 61.5844 51.0454C63.0001 53.2902 66.6111 54.6575 68.9536 53.1936C69.3435 52.9486 69.1974 52.2172 68.7098 52.2655C65.9717 52.3851 64.8412 52.6404 62.4147 50.4117Z" fill="#2F3941"/>
<path d="M81.0991 108.628C80.807 107.519 74.9799 108.106 74.9017 108.628C73.6482 116.933 73.6068 125.705 73.1445 134.1C72.9375 137.857 73.8276 138.93 76.414 141.518C79.5561 144.708 81.7807 148.686 82.854 153.034C82.9104 153.23 83.029 153.402 83.1919 153.524C83.3547 153.647 83.553 153.713 83.7567 153.713C83.9605 153.713 84.1587 153.647 84.3216 153.524C84.4844 153.402 84.603 153.23 84.6595 153.034C89.9736 136.704 89.6643 140.203 87.1481 132.051C84.7825 124.382 83.1679 116.491 81.0991 108.628Z" fill="#2F3941"/>
<path d="M77.1943 173.871C77.5618 171.774 77.4438 169.62 76.8493 167.576C76.3048 164.521 75.505 161.518 74.4585 158.597C74.309 158.208 73.6282 158.207 73.6282 158.694C74.0192 163.769 75.1416 168.796 75.8247 173.823C75.8662 173.969 75.9532 174.099 76.0731 174.193C76.193 174.287 76.3397 174.34 76.4919 174.346C76.6442 174.351 76.7942 174.308 76.9204 174.223C77.0466 174.137 77.1426 174.014 77.1943 173.871Z" fill="#2F3941"/>
<path d="M70.021 173.871C70.0875 167.911 69.349 161.969 67.8257 156.206C67.6658 155.574 66.5963 155.67 66.6538 156.353C67.1587 162.264 67.9717 168.161 68.9538 174.017C69.0458 174.603 69.9727 174.456 70.021 173.871Z" fill="#2F3941"/>
<path d="M61.8222 173.871C63.0216 169.752 62.2063 164.991 61.8222 160.841C61.7727 160.305 60.9022 160.062 60.7975 160.695C60.096 165.056 60.0468 169.496 60.6515 173.871C60.7561 174.553 61.6669 174.406 61.8222 173.871Z" fill="#2F3941"/>
<path d="M68.6065 28.6951C68.5007 29.1816 69.1493 29.6761 69.5334 29.2322C72.3808 25.9409 73.7815 27.3646 75.3892 26.6458C75.4779 26.5918 75.5535 26.5187 75.6103 26.4318C75.6672 26.3449 75.704 26.2464 75.718 26.1435C75.732 26.0406 75.7228 25.9359 75.6912 25.837C75.6596 25.738 75.6063 25.6474 75.5352 25.5717C74.2001 23.964 69.3149 25.4176 68.6065 28.6951Z" fill="#2F3941"/>
<path d="M55.4308 33.0398C55.1421 33.3848 55.3767 34.1024 55.9184 33.8689C58.2075 32.8838 60.7319 32.5787 63.1898 32.9903C63.8246 33.0812 63.8798 32.206 63.4819 31.9174C62.2358 31.0846 60.7271 30.7388 59.2427 30.9458C57.7583 31.1527 56.4017 31.8979 55.4308 33.0398Z" fill="#2F3941"/>
<path d="M45.8167 151.814C44.3335 143.967 43.7118 135.982 43.9629 128.001C43.9756 127.415 43.1407 127.465 43.0843 128.001C42.292 136.087 42.7184 144.246 44.3493 152.205C44.5621 153.226 46.0122 152.79 45.8167 151.814Z" fill="#2F3941"/>
<path d="M52.2582 153.913C46.1632 153.937 39.5392 154.851 33.7639 152.399C33.1797 152.152 32.6381 152.992 33.228 153.327C38.9987 156.611 45.8171 155.596 52.2099 155.621C57.0399 155.639 59.072 157.472 53.7716 160.745C52.1882 161.693 50.48 162.416 48.6967 162.892C45.0351 163.912 41.7173 163.582 38.058 163.237C37.0817 163.143 37.0322 164.559 37.8637 164.847C41.9036 166.242 46.798 165.64 50.7437 164.212C53.284 163.292 58.6982 161.04 58.7465 157.673C58.7983 154.205 54.748 153.902 52.2582 153.913Z" fill="#2F3941"/>
<path d="M168.691 40.4075C168.056 39.2005 167.062 38.2195 165.848 37.5992C164.633 36.9789 163.256 36.7495 161.906 36.9425C160.259 37.2369 158.372 38.9194 157.246 40.4707C157.211 41.2976 157.251 42.1261 157.368 42.9455C157.556 43.0081 157.757 43.0247 157.953 42.9938C159.696 42.9133 161.442 42.9787 163.174 43.1893C164.554 43.2296 167.679 42.8938 168.64 43.3216C168.645 43.1318 168.748 40.5167 168.691 40.4075Z" fill="#2F3941"/>
</svg>
