<svg width="219" height="172" viewBox="0 0 219 172" fill="none" xmlns="http://www.w3.org/2000/svg">
<path d="M187.996 107.228C165.714 108.446 185.252 97.1728 167.33 94.7509C159.66 93.7159 143.385 95.8549 136.027 98.2998C135.738 98.3964 134.27 105.847 134.122 106.487C133.42 109.499 127.893 126.781 127.139 129.854C136.822 133.216 144.467 133.009 154.675 132.193C155.333 132.142 155.402 133.113 154.824 133.293C147.626 135.51 139.498 134.966 132.229 133.293C125.699 131.786 123.877 130.269 122.914 130.315C122.09 130.353 114.607 133.317 112.882 133.317C101.784 133.308 96.6039 126.829 95.34 126.835C95.1871 126.835 84.3414 130.055 80.7258 130.694C73.7169 131.934 66.5914 132.387 59.4819 132.044C59.4084 132.044 59.3379 132.015 59.2859 131.963C59.234 131.911 59.2048 131.841 59.2048 131.767C59.2048 131.694 59.234 131.623 59.2859 131.571C59.3379 131.519 59.4084 131.49 59.4819 131.49C65.9706 131.445 72.4431 130.836 78.8261 129.668C79.9209 124.519 86.2263 99.1382 87.1521 98.5827C68.8464 102.877 76.9171 92.2025 68.3346 92.4233C45.7716 92.9983 10.4022 105.171 1.5495 124.109C-2.09945 131.91 2.1406 136.745 11.6143 140.094C19.1215 142.754 26.3343 143.348 32.2108 144.771C42.5217 147.265 37.3088 153.301 37.5652 159.973C38.0505 172.567 54.4047 171.868 61.2552 171.304C78.442 169.89 96.3934 164.433 113.607 161.966C127.488 159.977 121.478 168.988 132.053 171.132C151.932 175.157 183.376 160.654 193.965 152.764C240.14 118.357 212.057 105.912 187.996 107.228ZM43.6269 119.74C41.8869 120.223 39.8158 119.491 38.2356 118.803C36.4756 118.09 34.8792 117.026 33.5437 115.676C30.257 118.589 25.2798 120.67 20.9132 120.214C20.8276 120.213 20.7454 120.18 20.6815 120.123C20.6175 120.067 20.576 119.989 20.5645 119.904C20.553 119.819 20.5722 119.733 20.6186 119.661C20.6651 119.589 20.7357 119.536 20.8178 119.512C23.9446 118.644 29.0529 118.168 33.0676 114.079C33.2087 113.94 33.3986 113.862 33.5966 113.862C33.7945 113.862 33.9845 113.94 34.1256 114.079C36.5774 116.997 40.1769 117.805 43.6234 118.887C43.7149 118.915 43.795 118.971 43.8522 119.048C43.9093 119.124 43.9403 119.217 43.9407 119.312C43.9411 119.408 43.9108 119.501 43.8543 119.578C43.7978 119.655 43.7181 119.712 43.6269 119.74ZM58.0444 109.528C56.1184 109.717 54.1947 109.148 52.6808 107.943C51.4788 108.893 50.0441 109.504 48.5259 109.712C48.0406 109.791 47.8175 109.07 48.3177 108.959C51.7068 108.208 52.2369 106.206 52.943 106.743C54.4834 107.777 56.2197 108.484 58.0444 108.82C58.3756 108.905 58.4159 109.469 58.0444 109.528ZM80.7937 160.013C78.9031 160.261 76.8285 159.034 75.3968 157.9C74.9678 157.602 74.5753 157.254 74.2272 156.865C73.2886 157.55 72.2477 158.084 71.1429 158.445C69.0161 159.325 66.786 159.932 64.5062 160.25C64.1613 160.306 64.0141 159.817 64.3614 159.722C66.8037 159.076 69.1609 158.142 71.3833 156.941C72.2101 156.481 73.0151 155.695 73.8742 155.331C74.6792 154.986 75.1012 155.695 75.659 156.195C77.269 157.643 79.2654 158.014 81.0318 159.129C81.1144 159.186 81.1774 159.266 81.2121 159.36C81.2467 159.454 81.2513 159.556 81.2251 159.653C81.1989 159.75 81.1433 159.836 81.066 159.899C80.9887 159.963 80.8935 160.001 80.7937 160.008V160.013ZM94.205 138.242C94.2179 138.25 94.2303 138.259 94.2418 138.269L94.205 138.242ZM102.394 140.427C97.8355 141.173 93.6243 137.739 93.7381 137.752C90 139.145 86.084 140.004 82.1059 140.304C81.6597 140.339 81.6712 139.655 82.1059 139.614C85.8056 139.32 89.4226 138.365 92.7847 136.794C93.8853 136.275 94.1935 136.745 95.309 137.369C97.5341 138.482 99.9249 139.227 102.388 139.576C102.798 139.653 102.813 140.355 102.391 140.424L102.394 140.427ZM152.024 151.276C150.304 151.736 146.571 151.083 144.067 150.253C142.93 149.879 141.847 149.357 140.847 148.701C140.284 149.093 139.689 149.436 139.068 149.728C136.978 150.696 134.416 151.881 132.061 151.73C131.962 151.728 131.866 151.691 131.792 151.626C131.718 151.56 131.67 151.47 131.656 151.372C131.642 151.274 131.663 151.174 131.717 151.09C131.77 151.007 131.851 150.945 131.946 150.916C133.173 150.422 134.463 150.111 135.691 149.608C140.781 147.538 140.406 146.466 141.912 147.509C145.779 150.179 148.511 149.234 152.018 150.328C152.118 150.36 152.205 150.423 152.267 150.508C152.329 150.593 152.363 150.695 152.363 150.8C152.363 150.905 152.33 151.007 152.268 151.092C152.207 151.177 152.12 151.241 152.02 151.273L152.024 151.276ZM167.434 117.926C164.409 118.846 160.631 117.158 158.042 115.544C157.207 116.262 156.314 116.909 155.372 117.48C156.012 117.669 156.655 117.862 157.289 118.08C157.397 118.113 157.49 118.184 157.551 118.279C157.611 118.375 157.637 118.488 157.622 118.6C157.607 118.712 157.552 118.815 157.469 118.891C157.385 118.967 157.277 119.011 157.164 119.015C155.589 119.104 154.013 118.846 152.548 118.261C151.082 117.675 149.763 116.776 148.683 115.626C146.423 117.873 143.431 119.234 140.252 119.461C139.953 119.478 139.923 119.045 140.185 118.961C143.239 118.117 146.019 116.487 148.248 114.235C148.371 114.115 148.536 114.047 148.708 114.047C148.88 114.047 149.045 114.115 149.168 114.235C150.578 115.664 152.356 116.674 154.305 117.154C157.531 115.17 157.55 114.074 158.252 114.462C161.043 116.029 164.145 116.966 167.337 117.206C167.422 117.211 167.503 117.246 167.565 117.304C167.628 117.363 167.668 117.441 167.679 117.526C167.69 117.61 167.671 117.696 167.626 117.769C167.58 117.841 167.511 117.895 167.43 117.922L167.434 117.926ZM200.874 127.797C197.575 128.338 194.126 126.697 191.551 124.698C188.34 126.801 184.67 128.1 180.851 128.485C180.506 128.524 180.438 127.948 180.769 127.894C185.893 127.054 187.669 125.996 191.234 123.254C191.366 123.179 191.519 123.149 191.67 123.169C191.821 123.188 191.961 123.256 192.07 123.362C195.764 126.368 198.576 126.237 200.874 126.884C201.292 126.999 201.353 127.719 200.871 127.794L200.874 127.797Z" fill="#2F3941"/>
<path d="M140.993 73.9474C139.171 66.7323 132.618 64.1804 133.66 53.2727C133.986 49.8595 139.022 30.1577 141.226 23.8212C141.307 23.5912 140.779 21.397 136.031 19.5995C133.772 18.7462 129.979 17.8423 127.765 19.166C127.711 19.1993 122.294 34.2712 119.749 41.5105C118.64 45.0798 117.216 48.5435 115.494 51.8605C114.417 53.7568 113.424 56.3984 105.121 58.9042C97.3353 61.2502 95.4378 68.9564 93.0458 76.5326C87.3947 94.4404 80.7948 115.673 78.5845 129.439C78.5305 129.784 79.025 129.94 79.1216 129.587C83.6388 112.94 95.9645 72.2822 97.5584 68.6367C98.3634 66.7886 100.834 61.9517 106.279 60.3233C110.015 59.2078 113.286 57.9003 115.716 54.6676C117.939 51.7098 125.777 28.2245 128.907 20.2021C134.508 19.9399 136.346 21.8409 139.665 23.9224C137.651 29.4102 136.372 35.2016 134.895 40.8458C133.198 47.3283 130.559 54.1858 132.272 60.9455C134.102 68.156 140.675 70.3191 139.402 81.8099C138.619 88.9008 127.207 126.444 126.691 130.953C126.695 131.123 126.754 131.288 126.859 131.422C126.964 131.557 127.11 131.653 127.275 131.698C127.439 131.743 127.614 131.733 127.773 131.671C127.931 131.608 128.066 131.496 128.155 131.351C129.65 127.965 130.34 124.106 131.325 120.541C139.524 90.9858 143.066 82.1561 140.993 73.9474Z" fill="#2F3941"/>
<path d="M134.173 3.35129C134.724 2.89129 138.301 2.68774 141.452 3.54449C144.37 4.33799 146.893 6.14694 147.003 6.83464C147.226 8.26639 142.694 20.4955 142.254 20.4955C141.815 20.4955 139.353 17.9965 134.632 16.8258C131.677 16.0933 129.336 16.5395 129.219 16.2623C128.948 15.6264 133.111 4.24599 134.173 3.35129Z" fill="#2F3941"/>
<path d="M90.8159 106.314C97.7159 103.983 103.793 97.8573 107.559 91.7968C111.849 84.8899 113.737 75.5634 113.145 70.0008C114.551 70.7204 116.005 71.341 117.497 71.8581C129.237 76.7502 130.24 80.475 133.16 83.2281C133.246 83.309 133.356 83.3599 133.473 83.3732C133.59 83.3866 133.708 83.3618 133.81 83.3024C133.912 83.243 133.992 83.1523 134.038 83.0438C134.084 82.9352 134.093 82.8148 134.065 82.7003C132.455 77.4436 124.56 73.2358 119.427 71.1014C117.22 70.0549 114.877 69.3232 112.467 68.9279C111.924 68.8761 111.861 69.3315 111.837 69.5845C111.11 76.9238 111.155 88.6826 99.3696 99.3523C96.5919 101.668 93.6235 103.746 90.4962 105.562C90.1167 105.799 90.3513 106.47 90.8159 106.314Z" fill="#2F3941"/>
<path d="M134.212 85.3923C134.207 85.2336 134.145 85.082 134.039 84.9643C133.932 84.8466 133.787 84.7704 133.63 84.7492C133.472 84.728 133.313 84.7631 133.179 84.8484C133.045 84.9337 132.945 85.0636 132.898 85.2152C132.143 87.2737 132.08 92.1704 130.598 97.6134C127.922 107.426 119.388 119.448 106.619 126.823C102.864 124.914 99.5133 122.298 96.75 119.118C93.9019 115.929 91.4584 112.401 89.475 108.613C95.714 109.247 102 108.006 107.53 105.048C107.12 106.855 106.918 108.703 106.927 110.557C106.73 112.999 106.992 115.457 107.703 117.802C107.739 117.899 107.807 117.981 107.896 118.035C107.985 118.089 108.09 118.111 108.193 118.098C108.296 118.084 108.391 118.036 108.464 117.962C108.536 117.887 108.581 117.79 108.591 117.687C108.658 115.402 108.341 113.134 108.347 110.843C108.353 108.714 108.841 106.507 108.776 104.39C111.059 103.117 113.238 101.667 115.294 100.051C116.197 97.6352 116.867 95.1384 117.296 92.5948C117.435 91.5793 117.526 90.5604 117.589 89.5381C120.413 88.0937 123.399 86.9966 126.214 85.5545C126.559 85.3774 126.292 84.9151 125.958 84.9634C122.977 85.5093 120.141 86.6642 117.627 88.3559C117.809 82.4004 116.476 76.4963 113.753 71.1967C113.73 71.1598 113.695 71.1322 113.654 71.119C113.613 71.1058 113.568 71.1078 113.528 71.1246C113.488 71.1415 113.456 71.1721 113.437 71.2108C113.418 71.2496 113.413 71.294 113.424 71.3359C115.854 78.1626 116.571 85.4813 115.513 92.65C115.186 94.7453 114.186 98.9543 114.186 98.9543C107.133 104.846 98.2191 108.047 89.0288 107.988C88.6919 107.988 88.7218 108.418 88.7632 108.527C90.3291 112.714 92.649 116.579 95.608 119.93C97.9793 122.617 102.879 126.975 106.383 127.761C108.234 128.176 126.413 116.642 131.943 98.4356C132.548 96.4576 134.469 87.5601 134.212 85.3923Z" fill="#2F3941"/>
<path d="M114.186 60.7051C110.665 63.1891 107.865 66.5619 106.072 70.4801C105.228 72.3316 104.558 74.3728 103.009 75.6907C101.208 77.2225 99.5686 76.0162 100.057 73.4804C100.794 70.277 102.624 67.4305 105.232 65.4304C107.829 63.4555 110.715 61.8941 113.788 60.8017L114.186 60.7051Z" fill="#2F3941"/>
<path d="M95.7219 90.838C95.7656 92.5124 98.7671 93.0736 98.966 89.895C99.0833 87.917 95.562 84.766 95.7219 90.838Z" fill="#2F3941"/>
<path d="M213.575 40.6679C216.328 39.4892 215.725 37.3019 214.603 36.4612C209.773 32.8342 200.762 34.2762 194.927 35.8667C195.376 33.0388 190.92 29.6947 186.484 29.674C182.049 29.6533 176.64 32.2281 173.144 35.7689C170.299 34.5966 167.201 34.1688 164.144 34.5259C161.087 34.8831 158.171 36.0134 155.672 37.8102C154.442 38.6796 153.275 39.6362 152.181 40.6725L213.575 40.6679Z" fill="#2F3941"/>
<path d="M88.2894 49.682C92.9043 47.7109 87.8294 41.7205 72.9944 45.7478C73.3624 43.4294 69.7077 40.6878 66.0714 40.6671C62.4351 40.6464 57.9972 42.7601 55.1291 45.6604C52.7953 44.6982 50.2546 44.3469 47.7472 44.6397C45.2398 44.9324 42.8484 45.8597 40.799 47.3337C39.7895 48.0473 38.8322 48.8321 37.9343 49.682H88.2894Z" fill="#2F3941"/>
<path d="M77.3656 13.7382C80.7638 12.2858 80.0186 9.58444 78.6306 8.54714C72.6667 4.07249 61.5531 5.85729 54.3587 7.81459C54.913 4.32549 49.4137 0.200442 43.9443 0.173992C38.4749 0.147542 31.8037 3.32154 27.4901 7.68464C20.5372 4.56699 12.0801 5.86419 5.93445 10.2031C4.41763 11.2779 2.97918 12.4593 1.63 13.7382H77.3656Z" fill="#2F3941"/>
</svg>
